<svg viewBox="0 0 64 64" xmlns="http://www.w3.org/2000/svg"><path d="M62.9 17.7h-16l-1.6-7.2C44.9 9 43.6 7.9 42 7.9H22c-1.6 0-2.9 1.1-3.2 2.6l-1.6 7.2h-3v-2.3c0-1.2-1-2.2-2.2-2.2H7.1c-1.2 0-2.2 1-2.2 2.2v2.3H1.1c-.6 0-1.1.5-1.1 1.1v34c0 1.8 1.5 3.3 3.3 3.3h57.4c1.8 0 3.3-1.5 3.3-3.3v-34c0-.7-.5-1.1-1.1-1.1zm-42-6.7c.1-.5.6-.9 1.1-.9h20c.5 0 1 .4 1.1.9l1.5 6.7H19.4l1.5-6.7zM7.1 15.4H12v2.3H7.1v-2.3zM6 19.9H61.9v8.7h-21c-2.4-2.1-5.4-3.3-8.8-3.3s-6.4 1.3-8.8 3.3h-21v-8.7H6zm26 7.5c6.2 0 11.2 5 11.2 11.2s-5 11.2-11.2 11.2-11.2-5-11.2-11.2 5-11.2 11.2-11.2zm28.7 26.5H3.3c-.6 0-1.1-.5-1.1-1.1v-22h19c-1.6 2.2-2.6 4.9-2.6 7.9 0 7.4 6 13.4 13.4 13.4s13.4-6 13.4-13.4c0-3-1-5.7-2.6-7.9h19v22c0 .6-.5 1.1-1.1 1.1z"/><path d="M51.4 27.2h4.7c1.2 0 2.2-1 2.2-2.2v-1.3c0-1.2-1-2.2-2.2-2.2h-4.7c-1.2 0-2.2 1-2.2 2.2V25c0 1.2 1 2.2 2.2 2.2zm0-3.5h4.7V25h-4.7v-1.3z"/></svg>